<svg xmlns="http://www.w3.org/2000/svg" viewBox="0 0 64 64" width="64" height="64">
  <defs>
    <linearGradient id="skyGrad" x1="0%" y1="0%" x2="0%" y2="100%">
      <stop offset="0%" stop-color="#38bdf8"/>
      <stop offset="100%" stop-color="#0284c7"/>
    </linearGradient>
  </defs>
  <rect width="64" height="64" rx="12" fill="url(#skyGrad)"/>
  <g fill="#ffffff">
    <rect x="8" y="32" width="10" height="22" rx="1.5"/>
    <rect x="9.5" y="34" width="3" height="3" rx="0.5" fill="#0ea5e9" opacity="0.6"/>
    <rect x="13.5" y="34" width="3" height="3" rx="0.5" fill="#0ea5e9" opacity="0.6"/>
    <rect x="9.5" y="39" width="3" height="3" rx="0.5" fill="#0ea5e9" opacity="0.6"/>
    <rect x="13.5" y="39" width="3" height="3" rx="0.5" fill="#0ea5e9" opacity="0.6"/>
    <rect x="9.5" y="44" width="3" height="3" rx="0.5" fill="#0ea5e9" opacity="0.6"/>
    <rect x="13.5" y="44" width="3" height="3" rx="0.5" fill="#0ea5e9" opacity="0.6"/>
    <rect x="20" y="18" width="12" height="36" rx="1.5"/>
    <rect x="21.5" y="20" width="3.5" height="3" rx="0.5" fill="#0ea5e9" opacity="0.6"/>
    <rect x="27" y="20" width="3.5" height="3" rx="0.5" fill="#0ea5e9" opacity="0.6"/>
    <rect x="21.5" y="25" width="3.5" height="3" rx="0.5" fill="#0ea5e9" opacity="0.6"/>
    <rect x="27" y="25" width="3.5" height="3" rx="0.5" fill="#0ea5e9" opacity="0.6"/>
    <rect x="21.5" y="30" width="3.5" height="3" rx="0.5" fill="#0ea5e9" opacity="0.6"/>
    <rect x="27" y="30" width="3.5" height="3" rx="0.5" fill="#0ea5e9" opacity="0.6"/>
    <rect x="21.5" y="35" width="3.5" height="3" rx="0.5" fill="#0ea5e9" opacity="0.6"/>
    <rect x="27" y="35" width="3.5" height="3" rx="0.5" fill="#0ea5e9" opacity="0.6"/>
    <rect x="21.5" y="40" width="3.5" height="3" rx="0.5" fill="#0ea5e9" opacity="0.6"/>
    <rect x="27" y="40" width="3.5" height="3" rx="0.5" fill="#0ea5e9" opacity="0.6"/>
    <rect x="21.5" y="45" width="3.5" height="3" rx="0.5" fill="#0ea5e9" opacity="0.6"/>
    <rect x="27" y="45" width="3.5" height="3" rx="0.5" fill="#0ea5e9" opacity="0.6"/>
    <polygon points="26,14 20,18 32,18"/>
    <rect x="34" y="26" width="10" height="28" rx="1.5"/>
    <rect x="35.5" y="28" width="3" height="3" rx="0.5" fill="#0ea5e9" opacity="0.6"/>
    <rect x="39.5" y="28" width="3" height="3" rx="0.5" fill="#0ea5e9" opacity="0.6"/>
    <rect x="35.5" y="33" width="3" height="3" rx="0.5" fill="#0ea5e9" opacity="0.6"/>
    <rect x="39.5" y="33" width="3" height="3" rx="0.5" fill="#0ea5e9" opacity="0.6"/>
    <rect x="35.5" y="38" width="3" height="3" rx="0.5" fill="#0ea5e9" opacity="0.6"/>
    <rect x="39.5" y="38" width="3" height="3" rx="0.5" fill="#0ea5e9" opacity="0.6"/>
    <rect x="35.5" y="43" width="3" height="3" rx="0.5" fill="#0ea5e9" opacity="0.6"/>
    <rect x="39.5" y="43" width="3" height="3" rx="0.5" fill="#0ea5e9" opacity="0.6"/>
    <rect x="46" y="36" width="10" height="18" rx="1.5"/>
    <rect x="47.5" y="38" width="3" height="3" rx="0.5" fill="#0ea5e9" opacity="0.6"/>
    <rect x="47.5" y="43" width="3" height="3" rx="0.5" fill="#0ea5e9" opacity="0.6"/>
    <rect x="47.5" y="48" width="3" height="3" rx="0.5" fill="#0ea5e9" opacity="0.6"/>
  </g>
</svg>